<?xml version="1.0" encoding="UTF-8" standalone="no"?>
<!-- Created with Inkscape (http://www.inkscape.org/) -->

<svg
   xmlns:dc="http://purl.org/dc/elements/1.1/"
   xmlns:cc="http://creativecommons.org/ns#"
   xmlns:rdf="http://www.w3.org/1999/02/22-rdf-syntax-ns#"
   xmlns:svg="http://www.w3.org/2000/svg"
   xmlns="http://www.w3.org/2000/svg"
   xmlns:sodipodi="http://sodipodi.sourceforge.net/DTD/sodipodi-0.dtd"
   xmlns:inkscape="http://www.inkscape.org/namespaces/inkscape"
   width="150mm"
   height="150mm"
   viewBox="0 0 150 150"
   version="1.1"
   id="svg8"
   inkscape:version="0.92.4 (5da689c313, 2019-01-14)"
   sodipodi:docname="drawing.svg">
  <defs
     id="defs2" />
  <sodipodi:namedview
     id="base"
     pagecolor="#ffffff"
     bordercolor="#666666"
     borderopacity="1.0"
     inkscape:pageopacity="0.0"
     inkscape:pageshadow="2"
     inkscape:zoom="2"
     inkscape:cx="103.50149"
     inkscape:cy="422.77451"
     inkscape:document-units="mm"
     inkscape:current-layer="layer1"
     showgrid="false"
     inkscape:window-width="1920"
     inkscape:window-height="995"
     inkscape:window-x="0"
     inkscape:window-y="24"
     inkscape:window-maximized="1" />
  <metadata
     id="metadata5">
    <rdf:RDF>
      <cc:Work
         rdf:about="">
        <dc:format>image/svg+xml</dc:format>
        <dc:type
           rdf:resource="http://purl.org/dc/dcmitype/StillImage" />
        <dc:title />
      </cc:Work>
    </rdf:RDF>
  </metadata>
  <g
     inkscape:label="Layer 1"
     inkscape:groupmode="layer"
     id="layer1">
    <path
       id="path333"
       inkscape:label="part"
       style="fill:none;stroke:#000000"
       d="m 72,127 h 8.843889 v -4 h 8.978889 v 4 h 8.798889 v -4 h 8.978893 v 4 h 8.79888 v -4 h 8.97889 v 4 h 8.79889 v -4 h 8.97889 v 4 H 152"
       inkscape:connector-curvature="0" />
    <path
       id="path335"
       inkscape:label="part"
       style="fill:none;stroke:#000000"
       d="m 152,127 v 6.045 h -4 v 9.91 h 4 v 10.09 h -4 v 9.91 h 4 v 10.09 h -4 v 9.91 h 4 V 189"
       inkscape:connector-curvature="0" />
    <path
       id="path337"
       inkscape:label="part"
       style="fill:none;stroke:#000000"
       d="m 152,189 h -8.84389 v 4 h -8.97889 v -4 h -8.79889 v 4 h -8.97889 v -4 h -8.79888 v 4 h -8.978893 v -4 h -8.798889 v 4 h -8.978889 v -4 H 72"
       inkscape:connector-curvature="0" />
    <path
       id="path339"
       inkscape:label="part"
       style="fill:none;stroke:#000000"
       d="m 72,189 v -6.045 h 4 v -9.91 h -4 v -10.09 h 4 v -9.91 h -4 v -10.09 h 4 v -9.91 H 72 V 127"
       inkscape:connector-curvature="0" />
    <path
       id="path341"
       inkscape:label="part"
       style="fill:none;stroke:#000000"
       d="m 5,76 h 5.955 v -4 h 10.09 v 4 h 9.91 v -4 h 10.09 v 4 h 9.91 v -4 h 10.09 v 4 H 67"
       inkscape:connector-curvature="0" />
    <path
       id="path343"
       inkscape:label="part"
       style="fill:none;stroke:#000000"
       d="m 67,76 v 5.955 h 4 v 10.09 h -4 v 9.91 h 4 v 10.09 H 67 V 118"
       inkscape:connector-curvature="0" />
    <path
       id="path345"
       inkscape:label="part"
       style="fill:none;stroke:#000000"
       d="m 67,118 h -5.955 v 4 h -10.09 v -4 h -9.91 v 4 h -10.09 v -4 h -9.91 v 4 h -10.09 v -4 H 5"
       inkscape:connector-curvature="0" />
    <path
       id="path347"
       inkscape:label="part"
       style="fill:none;stroke:#000000"
       d="m 5,118 v -5.955 H 1 v -10.09 h 4 v -9.91 H 1 V 81.955 H 5 V 76"
       inkscape:connector-curvature="0" />
    <path
       id="path349"
       inkscape:label="part"
       style="fill:none;stroke:#000000"
       d="m 72,72 h 8.933889 v 4 h 8.798889 v -4 h 8.978889 v 4 h 8.798893 v -4 h 8.97888 v 4 h 8.79889 v -4 h 8.97889 v 4 h 8.79889 V 72 H 152"
       inkscape:connector-curvature="0" />
    <path
       id="path351"
       inkscape:label="part"
       style="fill:none;stroke:#000000"
       d="m 152,72 v 10.045 h -4 v 9.91 h 4 v 10.09 h -4 v 9.91 h 4 V 122"
       inkscape:connector-curvature="0" />
    <path
       id="path353"
       inkscape:label="part"
       style="fill:none;stroke:#000000"
       d="m 152,122 h -8.93389 v -4 h -8.79889 v 4 h -8.97889 v -4 h -8.79889 v 4 h -8.97888 v -4 h -8.798893 v 4 h -8.978889 v -4 h -8.798889 v 4 H 72"
       inkscape:connector-curvature="0" />
    <path
       id="path355"
       inkscape:label="part"
       style="fill:none;stroke:#000000"
       d="m 72,122 v -10.045 h 4 v -9.91 h -4 v -10.09 h 4 v -9.91 H 72 V 72"
       inkscape:connector-curvature="0" />
    <path
       id="path357"
       inkscape:label="part"
       style="fill:none;stroke:#000000"
       d="m 157,76 h 5.955 v -4 h 10.09 v 4 h 9.91 v -4 h 10.09 v 4 h 9.91 v -4 h 10.09 v 4 H 219"
       inkscape:connector-curvature="0" />
    <path
       id="path361"
       inkscape:label="part"
       style="fill:none;stroke:#000000"
       d="m 219,118 h -5.955 v 4 h -10.09 v -4 h -9.91 v 4 h -10.09 v -4 h -9.91 v 4 h -10.09 v -4 H 157"
       inkscape:connector-curvature="0" />
    <path
       id="path363"
       inkscape:label="part"
       style="fill:none;stroke:#000000"
       d="m 157,118 v -5.955 h -4 v -10.09 h 4 v -9.91 h -4 v -10.09 h 4 V 76"
       inkscape:connector-curvature="0" />
    <path
       id="path369"
       inkscape:label="part"
       style="fill:none;stroke:#000000"
       d="m 304,122 h -8.93389 v -4 h -8.79889 v 4 h -8.97889 v -4 h -8.79889 v 4 h -8.97888 v -4 h -8.79889 v 4 h -8.97889 v -4 h -8.79889 v 4 H 224"
       inkscape:connector-curvature="0" />
    <path
       id="path373"
       inkscape:label="part"
       style="fill:none;stroke:#000000"
       d="m 72,5 h 8.843889 V 1 h 8.978889 v 4 h 8.798889 V 1 h 8.978893 v 4 h 8.79888 V 1 h 8.97889 v 4 h 8.79889 V 1 h 8.97889 V 5 H 152"
       inkscape:connector-curvature="0" />
    <path
       id="path375"
       inkscape:label="part"
       style="fill:none;stroke:#000000"
       d="m 152,5 v 6.045 h -4 v 9.91 h 4 v 10.09 h -4 v 9.91 h 4 v 10.09 h -4 v 9.91 h 4 V 67"
       inkscape:connector-curvature="0" />
    <path
       id="path377"
       inkscape:label="part"
       style="fill:none;stroke:#000000"
       d="m 152,67 h -8.84389 v 4 h -8.97889 v -4 h -8.79889 v 4 h -8.97889 v -4 h -8.79888 v 4 h -8.978893 v -4 h -8.798889 v 4 H 80.843889 V 67 H 72"
       inkscape:connector-curvature="0" />
    <path
       id="path379"
       inkscape:label="part"
       style="fill:none;stroke:#000000"
       d="m 72,67 v -6.045 h 4 v -9.91 h -4 v -10.09 h 4 v -9.91 h -4 v -10.09 h 4 v -9.91 H 72 V 5"
       inkscape:connector-curvature="0" />
    <path
       id="path437"
       inkscape:label="part"
       style="fill:none;stroke:#000000"
       d="m 72,127 h 8.843889 v -4 h 8.978889 v 4 h 8.798889 v -4 h 8.978893 v 4 h 8.79888 v -4 h 8.97889 v 4 h 8.79889 v -4 h 8.97889 v 4 H 152"
       inkscape:connector-curvature="0" />
    <path
       id="path439"
       inkscape:label="part"
       style="fill:none;stroke:#000000"
       d="m 152,127 v 6.045 h -4 v 9.91 h 4 v 10.09 h -4 v 9.91 h 4 v 10.09 h -4 v 9.91 h 4 V 189"
       inkscape:connector-curvature="0" />
    <path
       id="path441"
       inkscape:label="part"
       style="fill:none;stroke:#000000"
       d="m 152,189 h -8.84389 v 4 h -8.97889 v -4 h -8.79889 v 4 h -8.97889 v -4 h -8.79888 v 4 h -8.978893 v -4 h -8.798889 v 4 h -8.978889 v -4 H 72"
       inkscape:connector-curvature="0" />
    <path
       id="path443"
       inkscape:label="part"
       style="fill:none;stroke:#000000"
       d="m 72,189 v -6.045 h 4 v -9.91 h -4 v -10.09 h 4 v -9.91 h -4 v -10.09 h 4 v -9.91 H 72 V 127"
       inkscape:connector-curvature="0" />
    <path
       id="path445"
       inkscape:label="part"
       style="fill:none;stroke:#000000"
       d="m 5,76 h 5.955 v -4 h 10.09 v 4 h 9.91 v -4 h 10.09 v 4 h 9.91 v -4 h 10.09 v 4 H 67"
       inkscape:connector-curvature="0" />
    <path
       id="path447"
       inkscape:label="part"
       style="fill:none;stroke:#000000"
       d="m 67,76 v 5.955 h 4 v 10.09 h -4 v 9.91 h 4 v 10.09 H 67 V 118"
       inkscape:connector-curvature="0" />
    <path
       id="path449"
       inkscape:label="part"
       style="fill:none;stroke:#000000"
       d="m 67,118 h -5.955 v 4 h -10.09 v -4 h -9.91 v 4 h -10.09 v -4 h -9.91 v 4 h -10.09 v -4 H 5"
       inkscape:connector-curvature="0" />
    <path
       id="path451"
       inkscape:label="part"
       style="fill:none;stroke:#000000"
       d="m 5,118 v -5.955 H 1 v -10.09 h 4 v -9.91 H 1 V 81.955 H 5 V 76"
       inkscape:connector-curvature="0" />
    <path
       id="path453"
       inkscape:label="part"
       style="fill:none;stroke:#000000"
       d="m 72,72 h 8.933889 v 4 h 8.798889 v -4 h 8.978889 v 4 h 8.798893 v -4 h 8.97888 v 4 h 8.79889 v -4 h 8.97889 v 4 h 8.79889 V 72 H 152"
       inkscape:connector-curvature="0" />
    <path
       id="path455"
       inkscape:label="part"
       style="fill:none;stroke:#000000"
       d="m 152,72 v 10.045 h -4 v 9.91 h 4 v 10.09 h -4 v 9.91 h 4 V 122"
       inkscape:connector-curvature="0" />
    <path
       id="path457"
       inkscape:label="part"
       style="fill:none;stroke:#000000"
       d="m 152,122 h -8.93389 v -4 h -8.79889 v 4 h -8.97889 v -4 h -8.79889 v 4 h -8.97888 v -4 h -8.798893 v 4 h -8.978889 v -4 h -8.798889 v 4 H 72"
       inkscape:connector-curvature="0" />
    <path
       id="path459"
       inkscape:label="part"
       style="fill:none;stroke:#000000"
       d="m 72,122 v -10.045 h 4 v -9.91 h -4 v -10.09 h 4 v -9.91 H 72 V 72"
       inkscape:connector-curvature="0" />
    <path
       id="path461"
       inkscape:label="part"
       style="fill:none;stroke:#000000"
       d="m 157,76 h 5.955 v -4 h 10.09 v 4 h 9.91 v -4 h 10.09 v 4 h 9.91 v -4 h 10.09 v 4 H 219"
       inkscape:connector-curvature="0" />
    <path
       id="path465"
       inkscape:label="part"
       style="fill:none;stroke:#000000"
       d="m 219,118 h -5.955 v 4 h -10.09 v -4 h -9.91 v 4 h -10.09 v -4 h -9.91 v 4 h -10.09 v -4 H 157"
       inkscape:connector-curvature="0" />
    <path
       id="path467"
       inkscape:label="part"
       style="fill:none;stroke:#000000"
       d="m 157,118 v -5.955 h -4 v -10.09 h 4 v -9.91 h -4 v -10.09 h 4 V 76"
       inkscape:connector-curvature="0" />
    <path
       inkscape:connector-curvature="0"
       d="m 304,122 h -7.43389 a 1.5,1.5 0 0 1 -1.5,-1.5 v -1 a 1.5,1.5 0 0 0 -1.5,-1.5 h -5.79889 a 1.5,1.5 0 0 0 -1.5,1.5 v 1 a 1.5,1.5 0 0 1 -1.5,1.5 h -5.97889 a 1.5,1.5 0 0 1 -1.5,-1.5 v -1 a 1.5,1.5 0 0 0 -1.5,-1.5 h -5.79889 a 1.5,1.5 0 0 0 -1.5,1.5 v 1 a 1.5,1.5 0 0 1 -1.5,1.5 h -5.97888 a 1.5,1.5 0 0 1 -1.5,-1.5 v -1 a 1.5,1.5 0 0 0 -1.5,-1.5 h -5.79889 a 1.5,1.5 0 0 0 -1.5,1.5 v 1 a 1.5,1.5 0 0 1 -1.5,1.5 h -5.97889 a 1.5,1.5 0 0 1 -1.5,-1.5 v -1 a 1.5,1.5 0 0 0 -1.5,-1.5 h -5.79889 a 1.5,1.5 0 0 0 -1.5,1.5 v 1 a 1.5,1.5 0 0 1 -1.5,1.5 H 224"
       style="fill:none;stroke:#000000"
       inkscape:label="part"
       id="path473" />
    <path
       inkscape:connector-curvature="0"
       d="M 0,0 H 15 V 15 H 0 Z"
       style="fill:none;stroke:#000000"
       inkscape:label="part"
       id="path1000"
       sodipodi:nodetypes="ccccc" />
    <path
       sodipodi:nodetypes="ccccc"
       id="path1000-4"
       inkscape:label="part"
       style="fill:none;stroke:#000000;stroke-width:1"
       d="M 20,1.5 A 1.5,1.5 0 0 1 21.5,0 h 12 A 1.5,1.5 0 0 1 35,1.5 v 12 A 1.5,1.5 0 0 1 33.5,15 h -12 A 1.5,1.5 0 0 1 20,13.5 Z"
       inkscape:connector-curvature="0" />
    <path
       inkscape:connector-curvature="0"
       d="M 0,20 H 15 V 35 H 0 Z"
       style="fill:none;stroke:#ff0000;stroke-width:0.01;stroke-miterlimit:4;stroke-dasharray:none;stroke-opacity:1"
       inkscape:label="part"
       id="path1000-1"
       sodipodi:nodetypes="ccccc" />
    <path
       inkscape:connector-curvature="0"
       d="m 1.5,21.5 h 12 v 12 h -12 z"
       style="fill:none;stroke:#000000;stroke-width:1;stroke-miterlimit:4;stroke-dasharray:none;stroke-opacity:1"
       inkscape:label="part"
       id="path1000-1-9"
       sodipodi:nodetypes="ccccc" />
    <path
       sodipodi:nodetypes="ccccc"
       id="path1000-4-7"
       inkscape:label="part"
       style="fill:none;stroke:#ff0000;stroke-width:0.01;stroke-miterlimit:4;stroke-dasharray:none;stroke-opacity:1"
       d="M 20,21.5 A 1.5,1.5 0 0 1 21.5,20 h 12 a 1.5,1.5 0 0 1 1.5,1.5 v 12 A 1.5,1.5 0 0 1 33.5,35 h -12 A 1.5,1.5 0 0 1 20,33.5 Z"
       inkscape:connector-curvature="0" />
    <path
       sodipodi:nodetypes="cccccsscc"
       id="path1000-4-7-2"
       inkscape:label="part"
       style="fill:none;stroke:#000000;stroke-width:1;stroke-miterlimit:4;stroke-dasharray:none;stroke-opacity:1"
       d="M 21.5,23 A 1.5,1.5 0 0 1 23,21.5 h 9 a 1.5,1.5 0 0 1 1.5,1.5 v 9 A 1.5,1.5 0 0 1 32,33.5 H 23 A 1.5,1.5 0 0 1 21.5,32 Z"
       inkscape:connector-curvature="0" />
    <path
       sodipodi:nodetypes="ccccc"
       id="path47"
       inkscape:label="part"
       style="fill:none;stroke:#ff0000;stroke-width:0.01;stroke-miterlimit:4;stroke-dasharray:none;stroke-opacity:1"
       d="M 20,41.5 A 1.5,1.5 0 0 1 21.5,40 h 12 a 1.5,1.5 0 0 1 1.5,1.5 v 12 A 1.5,1.5 0 0 1 33.5,55 h -12 A 1.5,1.5 0 0 1 20,53.5 Z"
       inkscape:connector-curvature="0" />
    <path
       sodipodi:nodetypes="cccccsscc"
       id="path49"
       inkscape:label="part"
       style="fill:none;stroke:#000000;stroke-width:1;stroke-miterlimit:4;stroke-dasharray:none;stroke-opacity:1"
       d="M 21.5,42 A 0.5,0.5 0 0 1 22,41.5 H 33 A 0.5,0.5 0 0 1 33.5,42 V 53 A 0.5,0.5 0 0 1 33,53.5 H 22 A 0.5,0.5 0 0 1 21.5,53 Z"
       inkscape:connector-curvature="0" />
    <path
       sodipodi:nodetypes="ccccc"
       id="path2"
       inkscape:label="part"
       style="fill:none;stroke:#ff0000;stroke-width:0.01;stroke-miterlimit:4;stroke-dasharray:none;stroke-opacity:1"
       d="M -7.5,-6.0 a 1.5,1.5 0 0 1 1.5,-1.5 h 12.0 a 1.5,1.5 0 0 1 1.5,1.5 v 12.0 a 1.5,1.5 0 0 1 -1.5,1.5 h -12.0 a 1.5,1.5 0 0 1 -1.5,-1.5 Z"
       inkscape:connector-curvature="0" />
    <path
       sodipodi:nodetypes="cccccsscc"
       id="path3"
       inkscape:label="part"
       style="fill:none;stroke:#000000;stroke-width:1;stroke-miterlimit:4;stroke-dasharray:none;stroke-opacity:1"
       d="M -6.0,-5.5 a 0.5,0.5 0 0 1 0.5,-0.5 h 11.0 a 0.5,0.5 0 0 1 0.5,0.5 v 11.0 a 0.5,0.5 0 0 1 -0.5,0.5 h -11.0 a 0.5,0.5 0 0 1 -0.5,-0.5 Z"
       inkscape:connector-curvature="0" />
    <g
       aria-label="A"
       transform="scale(0.95673912,1.045217)"
       style="font-style:normal;font-weight:normal;font-size:10px;line-height:1;font-family:sans-serif;letter-spacing:0px;word-spacing:0px;fill:#000000;fill-opacity:1;stroke:none;stroke-width:0.22634088"
       id="text858">
      <path
         d="M 7.3469226,23.588131 6.009032,27.216061 H 8.6896961 Z M 6.790282,22.616451 H 7.9084461 L 10.686766,29.90649 H 9.6613758 L 8.9973133,28.036373 H 5.7111804 L 5.0471179,29.90649 h -1.040039 z"
         style="stroke-width:0.22634088"
         id="path860"
         inkscape:connector-curvature="0" />
    </g>
    <g
       aria-label="2"
       style="font-style:normal;font-weight:normal;font-size:3.5px;line-height:1;font-family:sans-serif;letter-spacing:0px;word-spacing:0px;fill:#000000;fill-opacity:1;stroke:none;stroke-width:0.26458332"
       id="text862">
      <path
         d="m 10.990381,31.98864 h 1.204834 v 0.290527 H 10.575098 V 31.98864 q 0.196533,-0.203369 0.534912,-0.545166 0.340088,-0.343506 0.427246,-0.442627 0.165772,-0.186279 0.230713,-0.314453 0.06665,-0.129883 0.06665,-0.254639 0,-0.203369 -0.143555,-0.331543 -0.141846,-0.128174 -0.37085,-0.128174 -0.162353,0 -0.343506,0.0564 -0.179443,0.0564 -0.384521,0.170898 V 29.8507 q 0.208496,-0.08374 0.389648,-0.126464 0.181153,-0.04273 0.331543,-0.04273 0.396485,0 0.632325,0.198242 0.235839,0.198242 0.235839,0.529785 0,0.157227 -0.05981,0.299073 -0.05811,0.140136 -0.213623,0.331543 -0.04273,0.04956 -0.271729,0.287109 -0.229004,0.23584 -0.645996,0.661377 z"
         style="stroke-width:0.26458332"
         id="path863"
         inkscape:connector-curvature="0" />
    </g>
    <text
       xml:space="preserve"
       style="font-style:normal;font-variant:normal;font-weight:normal;font-stretch:normal;font-size:10.58333302px;line-height:1.25;font-family:sans-serif;-inkscape-font-specification:'sans-serif, Normal';font-variant-ligatures:normal;font-variant-caps:normal;font-variant-numeric:normal;font-feature-settings:normal;text-align:start;letter-spacing:0px;word-spacing:0px;writing-mode:lr-tb;text-anchor:start;fill:#000000;fill-opacity:1;stroke:none;stroke-width:0.26458332"
       x="-4.1010418"
       y="3.8177066"
       id="text866"><tspan
         sodipodi:role="line"
         id="tspan864"
         x="-4.1010418"
         y="3.8177066"
         style="font-style:normal;font-variant:normal;font-weight:normal;font-stretch:normal;font-size:10.58333302px;font-family:sans-serif;-inkscape-font-specification:'sans-serif, Normal';font-variant-ligatures:normal;font-variant-caps:normal;font-variant-numeric:normal;font-feature-settings:normal;text-align:start;writing-mode:lr-tb;text-anchor:start;stroke-width:0.26458332">A</tspan></text>
    <text
       xml:space="preserve"
       style="font-style:normal;font-variant:normal;font-weight:normal;font-stretch:normal;font-size:4.58611107px;line-height:1.25;font-family:sans-serif;-inkscape-font-specification:'sans-serif, Normal';font-variant-ligatures:normal;font-variant-caps:normal;font-variant-numeric:normal;font-feature-settings:normal;text-align:start;letter-spacing:0px;word-spacing:0px;writing-mode:lr-tb;text-anchor:start;fill:#000000;fill-opacity:1;stroke:none;stroke-width:0.26458332"
       x="2.5135419"
       y="5.0083284"
       id="text870"><tspan
         sodipodi:role="line"
         id="tspan868"
         x="2.5135419"
         y="5.0083284"
         style="font-style:normal;font-variant:normal;font-weight:normal;font-stretch:normal;font-size:4.58611107px;font-family:sans-serif;-inkscape-font-specification:'sans-serif, Normal';font-variant-ligatures:normal;font-variant-caps:normal;font-variant-numeric:normal;font-feature-settings:normal;text-align:start;writing-mode:lr-tb;text-anchor:start;stroke-width:0.26458332">2</tspan></text>
  </g>
  <g
     id="g382"
     inkscape:groupmode="layer"
     inkscape:label="newlayer" />
  <g
     id="g487"
     inkscape:groupmode="layer"
     inkscape:label="newlayer" />
</svg>
